<svg width="100%" height="100%" xmlns="http://www.w3.org/2000/svg">
  <defs>
    <linearGradient id="autumnGrad" x1="0%" y1="0%" x2="0%" y2="100%">
      <stop offset="0%" style="stop-color:#d4782f;stop-opacity:1" />
      <stop offset="50%" style="stop-color:#a0522d;stop-opacity:1" />
      <stop offset="100%" style="stop-color:#5c3317;stop-opacity:1" />
    </linearGradient>
  </defs>
  <rect width="100%" height="100%" fill="url(#autumnGrad)" />

  <path d="M0,-8 Q4,-10 8,-8 Q6,-3 0,0 Q-6,-3 -8,-8 Q-4,-10 0,-8 Z" fill="#e8751a" opacity="0.9">
    <animateTransform attributeName="transform" type="translate" values="0,0;-15,130;10,270" dur="8s" repeatCount="indefinite" />
    <animateTransform attributeName="transform" type="rotate" values="0;-90;-180" dur="8s" repeatCount="indefinite" additive="sum" />
    <animate attributeName="opacity" values="0.9;0.9;0" dur="8s" repeatCount="indefinite" />
  </path>
  <path d="M0,-7 Q3.5,-9 7,-7 Q5,-2.5 0,0 Q-5,-2.5 -7,-7 Q-3.5,-9 0,-7 Z" fill="#c5893a" opacity="0.85">
    <animateTransform attributeName="transform" type="translate" values="0,0;20,110;-5,230" dur="9.5s" repeatCount="indefinite" />
    <animateTransform attributeName="transform" type="rotate" values="0;120;240" dur="9.5s" repeatCount="indefinite" additive="sum" />
    <animate attributeName="opacity" values="0.85;0.85;0" dur="9.5s" repeatCount="indefinite" />
  </path>
  <path d="M0,-6 Q3,-8 6,-6 Q4,-2 0,0 Q-4,-2 -6,-6 Q-3,-8 0,-6 Z" fill="#8b4513" opacity="0.8">
    <animateTransform attributeName="transform" type="translate" values="0,0;-25,90;-10,210" dur="10s" repeatCount="indefinite" />
    <animateTransform attributeName="transform" type="rotate" values="0;-60;-150" dur="10s" repeatCount="indefinite" additive="sum" />
    <animate attributeName="opacity" values="0.8;0.8;0" dur="10s" repeatCount="indefinite" />
  </path>
  <path d="M0,-8 Q4,-10 8,-8 Q6,-3 0,0 Q-6,-3 -8,-8 Q-4,-10 0,-8 Z" fill="#d4782f" opacity="0.88">
    <animateTransform attributeName="transform" type="translate" values="0,0;10,100;25,240" dur="7.5s" repeatCount="indefinite" />
    <animateTransform attributeName="transform" type="rotate" values="0;90;200" dur="7.5s" repeatCount="indefinite" additive="sum" />
    <animate attributeName="opacity" values="0.88;0.88;0" dur="7.5s" repeatCount="indefinite" />
  </path>
  <path d="M0,-5 Q2.5,-7 5,-5 Q3.5,-1.5 0,0 Q-3.5,-1.5 -5,-5 Q-2.5,-7 0,-5 Z" fill="#c04000" opacity="0.78">
    <animateTransform attributeName="transform" type="translate" values="0,0;-20,120;0,250" dur="11s" repeatCount="indefinite" />
    <animateTransform attributeName="transform" type="rotate" values="0;-80;-200" dur="11s" repeatCount="indefinite" additive="sum" />
    <animate attributeName="opacity" values="0.78;0.78;0" dur="11s" repeatCount="indefinite" />
  </path>
  <path d="M0,-7 Q3.5,-9 7,-7 Q5,-2.5 0,0 Q-5,-2.5 -7,-7 Q-3.5,-9 0,-7 Z" fill="#daa520" opacity="0.82">
    <animateTransform attributeName="transform" type="translate" values="0,0;5,115;-15,260" dur="8.8s" repeatCount="indefinite" />
    <animateTransform attributeName="transform" type="rotate" values="0;70;180" dur="8.8s" repeatCount="indefinite" additive="sum" />
    <animate attributeName="opacity" values="0.82;0.82;0" dur="8.8s" repeatCount="indefinite" />
  </path>
  <path d="M0,-6 Q3,-8 6,-6 Q4,-2 0,0 Q-4,-2 -6,-6 Q-3,-8 0,-6 Z" fill="#b8860b" opacity="0.75">
    <animateTransform attributeName="transform" type="translate" values="0,0;30,95;15,220" dur="9.2s" repeatCount="indefinite" />
    <animateTransform attributeName="transform" type="rotate" values="0;-110;-260" dur="9.2s" repeatCount="indefinite" additive="sum" />
    <animate attributeName="opacity" values="0.75;0.75;0" dur="9.2s" repeatCount="indefinite" />
  </path>
</svg>